<svg xmlns="http://www.w3.org/2000/svg" xmlns:xlink="http://www.w3.org/1999/xlink" width="40" zoomAndPan="magnify" viewBox="0 0 30 30.000001" height="40" preserveAspectRatio="xMidYMid meet" version="1.0"><defs><clipPath id="id1"><path d="M 8.941406 7.75 L 15 7.75 L 15 21.539062 L 8.941406 21.539062 Z M 8.941406 7.75 " clip-rule="nonzero"/></clipPath><clipPath id="id2"><path d="M 15 7.75 L 21.28125 7.75 L 21.28125 21.539062 L 15 21.539062 Z M 15 7.75 " clip-rule="nonzero"/></clipPath></defs><g clip-path="url(#id1)"><path fill="#341334" d="M 14.554688 12.597656 L 12.527344 14.625 L 14.554688 14.625 L 14.554688 17.078125 C 14.554688 18.492188 13.679688 19.761719 12.351562 20.257812 L 8.996094 21.515625 L 8.996094 12.171875 C 8.996094 10.757812 9.871094 9.488281 11.195312 8.992188 L 14.554688 7.734375 Z M 14.554688 12.597656 " fill-opacity="1" fill-rule="nonzero"/></g><g clip-path="url(#id2)"><path fill="#21385b" d="M 21.261719 12.171875 L 21.261719 21.515625 L 17.90625 20.257812 C 16.578125 19.761719 15.703125 18.496094 15.703125 17.078125 L 15.703125 14.625 L 17.730469 14.625 L 15.703125 12.597656 L 15.703125 7.738281 L 19.058594 8.996094 C 20.386719 9.488281 21.261719 10.753906 21.261719 12.171875 Z M 21.261719 12.171875 " fill-opacity="1" fill-rule="nonzero"/></g></svg>