<svg xmlns="http://www.w3.org/2000/svg" xmlns:xlink="http://www.w3.org/1999/xlink" width="99" zoomAndPan="magnify" viewBox="0 0 74.25 30.000001" height="40" preserveAspectRatio="xMidYMid meet" version="1.0"><defs><g/></defs><g fill="#17287d" fill-opacity="1"><g transform="translate(2.516447, 18.479733)"><g><path d="M 3.671875 -2.226562 L 3.671875 -4.515625 L 7.535156 -4.515625 L 7.535156 -6.691406 L 3.671875 -6.691406 L 3.671875 -8.902344 L 7.949219 -8.902344 L 7.949219 -11.125 L 1.273438 -11.125 L 1.273438 0 L 8.121094 0 L 8.121094 -2.226562 Z M 3.671875 -2.226562 "/></g></g></g><g fill="#17287d" fill-opacity="1"><g transform="translate(11.398041, 18.479733)"><g><path d="M 8.3125 -11.125 L 8.3125 -4.339844 L 3.433594 -11.125 L 1.273438 -11.125 L 1.273438 0 L 3.625 0 L 3.625 -6.945312 L 8.664062 0 L 10.679688 0 L 10.679688 -11.125 Z M 8.3125 -11.125 "/></g></g></g><g fill="#17287d" fill-opacity="1"><g transform="translate(23.346093, 18.479733)"><g><path d="M 4.960938 0.222656 C 7.265625 0.222656 9.171875 -0.9375 9.171875 -3.339844 C 9.171875 -5.832031 7.042969 -6.359375 5.355469 -6.789062 C 4.164062 -7.074219 3.210938 -7.3125 3.210938 -8.089844 C 3.210938 -8.820312 3.988281 -9.15625 4.769531 -9.15625 C 5.675781 -9.15625 6.46875 -8.710938 6.46875 -7.742188 L 8.835938 -7.742188 C 8.835938 -9.964844 7.390625 -11.332031 4.832031 -11.332031 C 2.367188 -11.332031 0.792969 -10.125 0.792969 -7.996094 C 0.792969 -5.59375 2.828125 -5.101562 4.515625 -4.6875 C 5.722656 -4.417969 6.738281 -4.179688 6.738281 -3.304688 C 6.738281 -2.480469 5.847656 -2.003906 4.945312 -2.003906 C 3.957031 -2.003906 3.066406 -2.527344 3.066406 -3.59375 L 0.636719 -3.59375 C 0.636719 -1.207031 2.398438 0.222656 4.960938 0.222656 Z M 4.960938 0.222656 "/></g></g></g><g fill="#17287d" fill-opacity="1"><g transform="translate(33.180994, 18.479733)"><g><path d="M 13.796875 -11.125 L 11.652344 -3.734375 L 8.664062 -11 L 7.851562 -11 L 4.925781 -3.71875 L 2.734375 -11.125 L 0.191406 -11.125 L 3.6875 0 L 5.832031 0 L 8.25 -6.230469 L 10.730469 0 L 12.875 0 L 16.308594 -11.125 Z M 13.796875 -11.125 "/></g></g></g><g fill="#17287d" fill-opacity="1"><g transform="translate(49.720789, 18.479733)"><g><path d="M 8.648438 0 L 11.269531 0 L 6.769531 -11.125 L 4.5 -11.125 L 0.128906 0 L 2.6875 0 L 3.449219 -2.097656 L 7.867188 -2.097656 Z M 5.660156 -8.1875 L 7.121094 -4.195312 L 4.195312 -4.195312 Z M 5.660156 -8.1875 "/></g></g></g><g fill="#17287d" fill-opacity="1"><g transform="translate(61.12864, 18.479733)"><g><path d="M 5.546875 -11.125 L 1.273438 -11.125 L 1.273438 0 L 3.671875 0 L 3.671875 -3.464844 L 5.546875 -3.464844 C 7.789062 -3.464844 9.472656 -5.101562 9.472656 -7.296875 C 9.472656 -9.488281 7.773438 -11.125 5.546875 -11.125 Z M 5.4375 -5.691406 L 3.671875 -5.691406 L 3.671875 -8.886719 L 5.4375 -8.886719 C 6.390625 -8.886719 7.042969 -8.21875 7.042969 -7.296875 C 7.042969 -6.375 6.390625 -5.691406 5.4375 -5.691406 Z M 5.4375 -5.691406 "/></g></g></g></svg>