<svg xmlns="http://www.w3.org/2000/svg" xmlns:xlink="http://www.w3.org/1999/xlink" width="99" zoomAndPan="magnify" viewBox="0 0 74.25 30.000001" height="40" preserveAspectRatio="xMidYMid meet" version="1.0"><defs><g/></defs><g fill="#ffffff" fill-opacity="1"><g transform="translate(2.491824, 18.916611)"><g><path d="M 3.671875 -2.226562 L 3.671875 -4.515625 L 7.535156 -4.515625 L 7.535156 -6.691406 L 3.671875 -6.691406 L 3.671875 -8.902344 L 7.949219 -8.902344 L 7.949219 -11.128906 L 1.273438 -11.128906 L 1.273438 0 L 8.125 0 L 8.125 -2.226562 Z M 3.671875 -2.226562 "/></g></g><g transform="translate(11.379091, 18.916611)"><g><path d="M 8.316406 -11.128906 L 8.316406 -4.339844 L 3.433594 -11.128906 L 1.273438 -11.128906 L 1.273438 0 L 3.625 0 L 3.625 -6.949219 L 8.664062 0 L 10.683594 0 L 10.683594 -11.128906 Z M 8.316406 -11.128906 "/></g></g><g transform="translate(23.33477, 18.916611)"><g><path d="M 4.960938 0.222656 C 7.265625 0.222656 9.171875 -0.9375 9.171875 -3.339844 C 9.171875 -5.835938 7.042969 -6.359375 5.359375 -6.789062 C 4.164062 -7.074219 3.210938 -7.3125 3.210938 -8.09375 C 3.210938 -8.824219 3.992188 -9.15625 4.769531 -9.15625 C 5.675781 -9.15625 6.46875 -8.710938 6.46875 -7.742188 L 8.839844 -7.742188 C 8.839844 -9.96875 7.394531 -11.335938 4.832031 -11.335938 C 2.367188 -11.335938 0.796875 -10.128906 0.796875 -7.996094 C 0.796875 -5.597656 2.828125 -5.101562 4.515625 -4.691406 C 5.722656 -4.417969 6.742188 -4.179688 6.742188 -3.308594 C 6.742188 -2.480469 5.851562 -2.003906 4.945312 -2.003906 C 3.957031 -2.003906 3.070312 -2.527344 3.070312 -3.59375 L 0.636719 -3.59375 C 0.636719 -1.207031 2.402344 0.222656 4.960938 0.222656 Z M 4.960938 0.222656 "/></g></g><g transform="translate(33.175947, 18.916611)"><g><path d="M 13.800781 -11.128906 L 11.652344 -3.734375 L 8.664062 -11 L 7.855469 -11 L 4.929688 -3.71875 L 2.734375 -11.128906 L 0.191406 -11.128906 L 3.6875 0 L 5.835938 0 L 8.25 -6.230469 L 10.730469 0 L 12.878906 0 L 16.3125 -11.128906 Z M 13.800781 -11.128906 "/></g></g></g><g fill="#ffffff" fill-opacity="1"><g transform="translate(49.726291, 18.916611)"><g><path d="M 8.648438 0 L 11.273438 0 L 6.773438 -11.128906 L 4.5 -11.128906 L 0.128906 0 L 2.6875 0 L 3.449219 -2.097656 L 7.871094 -2.097656 Z M 5.660156 -8.1875 L 7.121094 -4.195312 L 4.195312 -4.195312 Z M 5.660156 -8.1875 "/></g></g></g><g fill="#ffffff" fill-opacity="1"><g transform="translate(61.141419, 18.916611)"><g><path d="M 5.546875 -11.128906 L 1.273438 -11.128906 L 1.273438 0 L 3.671875 0 L 3.671875 -3.464844 L 5.546875 -3.464844 C 7.789062 -3.464844 9.476562 -5.101562 9.476562 -7.296875 C 9.476562 -9.492188 7.773438 -11.128906 5.546875 -11.128906 Z M 5.4375 -5.691406 L 3.671875 -5.691406 L 3.671875 -8.886719 L 5.4375 -8.886719 C 6.390625 -8.886719 7.042969 -8.21875 7.042969 -7.296875 C 7.042969 -6.375 6.390625 -5.691406 5.4375 -5.691406 Z M 5.4375 -5.691406 "/></g></g></g></svg>